<?xml version="1.0" encoding="UTF-8"?> <svg xmlns="http://www.w3.org/2000/svg" width="663" height="572" viewBox="0 0 663 572" fill="none"> <path d="M283.5 567C440.073 567 567 440.073 567 283.5C567 126.927 440.073 0 283.5 0C126.927 0 0 126.927 0 283.5C0 440.073 126.927 567 283.5 567Z" fill="#4D62A7"></path> <path d="M176.518 374.956C177.91 408.301 177.562 426.363 165.398 440.254C153.235 454.144 119.185 450.677 119.185 450.677C119.185 450.677 115.828 499.76 68.2215 501.848C20.6151 503.936 13.7855 440.718 51.0805 424.507C86.5811 409.077 97.8745 404.593 110.15 366.389C121.372 331.491 156.364 338.139 164.706 352.726C173.049 367.312 176.518 374.956 176.518 374.956Z" fill="black"></path> <path d="M160.887 545.153C160.887 545.153 183.357 549.553 184.518 549.321C185.679 549.089 210.23 538.206 212.778 539.826C215.327 541.445 230.151 547.701 233.392 549.089C236.633 550.477 231.54 550.941 228.995 550.941C226.451 550.941 211.85 544.921 210.247 546.077C208.645 547.233 222.987 549.553 222.987 550.477C222.987 551.4 184.536 560.204 182.219 560.204C179.902 560.204 162.065 558.584 162.065 558.584L160.887 545.153Z" fill="#E4A88C"></path> <path d="M142.242 422.482C154.344 424.856 161.468 437.653 163.785 448.875C166.101 460.097 142.242 422.482 142.242 422.482Z" fill="#4F5AC8"></path> <path d="M121.963 413.857C121.963 413.857 98.6794 429.474 86.1719 437.131C73.6643 444.788 90.6892 527.091 94.8584 557.656C99.0276 588.221 171.305 560.436 171.305 560.436C171.305 560.436 166.453 534.734 172.703 493.398C177.166 463.792 160.771 445.234 151.392 432.383C127.703 399.949 121.963 413.857 121.963 413.857Z" fill="#636DD2"></path> <path d="M99.0491 437.48C125.805 470.129 134.849 476.233 128.238 498.262C123.024 515.628 121.288 521.88 120.248 527.787C119.208 533.695 169.934 523.963 169.934 523.963L169.577 543.07C169.577 543.07 129.604 562.181 110.146 565.992C90.6884 569.802 78.5156 565.304 78.5156 565.304L99.0491 437.48Z" fill="#4F5AC8"></path> <path d="M434.073 568.249H117.509C116.966 568.249 116.428 568.142 115.926 567.934C115.423 567.726 114.967 567.421 114.583 567.037C114.199 566.653 113.894 566.197 113.686 565.695C113.478 565.194 113.371 564.656 113.371 564.112C113.371 563.569 113.478 563.031 113.686 562.53C113.894 562.028 114.199 561.572 114.583 561.188C114.967 560.803 115.423 560.499 115.926 560.291C116.428 560.083 116.966 559.976 117.509 559.976H434.073C435.17 559.976 436.223 560.412 436.999 561.188C437.775 561.963 438.211 563.015 438.211 564.112C438.211 565.209 437.775 566.262 436.999 567.037C436.223 567.813 435.17 568.249 434.073 568.249V568.249Z" fill="#22130C"></path> <path d="M130.544 380.976L118.492 416.637C118.492 416.637 131.701 452.413 142.806 444.422C146.605 441.696 141.418 420.108 141.418 420.108L149.524 391.163L130.544 380.976Z" fill="#F4B99E"></path> <path d="M92.0924 436.087C75.4602 437.934 74.0274 460.4 66.3809 497.913C58.7344 535.425 61.0243 560.185 64.6445 564.951C73.331 576.414 170.972 536.47 183.132 536.818C191.528 537.054 184.524 522.923 184.524 522.923L91.4005 537.161C91.4005 537.161 104.604 493.745 104.604 471.515C104.604 449.285 98.3506 435.39 92.0924 436.087Z" fill="#F4B99E"></path> <path d="M178.618 523.619C188.349 521.187 202.593 515.627 205.374 518.059C208.155 520.491 219.622 537.857 223.443 542.721C227.264 547.585 221.707 543.761 217.538 539.941C215.174 537.745 212.615 535.769 209.891 534.038C209.891 534.038 204.678 538.901 199.817 541.677C194.956 544.452 193.215 538.901 184.872 537.509C176.529 536.117 155.688 543.439 155.688 543.439L178.618 523.619Z" fill="#F4B99E"></path> <path d="M93.9475 433.307C83.7521 433.753 75.878 442.338 73.0971 455.537C70.3161 468.736 62.2099 510.648 62.2099 510.648C62.2099 510.648 60.5895 511.808 77.4984 514.816C94.4072 517.823 108.299 514.369 108.299 514.369C108.299 514.369 111.776 490.52 110.847 474.077C109.919 457.634 106.205 442.106 100.201 436.796C94.1974 431.487 93.9475 433.307 93.9475 433.307Z" fill="#636DD2"></path> <path d="M141.434 420.108L149.54 391.163L130.546 380.976L127.632 389.565C127.002 418.323 134.367 427.939 139.336 431.455C140.885 432.553 142.219 431.705 143.353 429.911C142.536 424.7 141.434 420.108 141.434 420.108Z" fill="#E4A88C"></path> <path d="M180.002 384.336C180.002 399.828 178.15 418.823 164.714 418.373C143.864 417.677 130.727 401.479 130.727 385.987C130.727 370.495 141.627 357.938 155.072 357.938C168.517 357.938 180.002 368.844 180.002 384.336Z" fill="#F4B99E"></path> <path d="M335.582 559.949H257.426L289.565 489.248C290.03 488.242 290.774 487.39 291.708 486.793C292.642 486.195 293.728 485.879 294.837 485.879H365.767C366.144 485.879 366.516 485.973 366.848 486.154C367.18 486.334 367.461 486.596 367.666 486.913C367.87 487.231 367.991 487.595 368.018 487.972C368.045 488.349 367.977 488.726 367.82 489.07L335.582 559.949Z" fill="#7C9BFD"></path> <path d="M335.419 559.95H191.238C191.238 558.756 191.472 557.573 191.929 556.47C192.386 555.367 193.056 554.364 193.9 553.52C194.744 552.675 195.747 552.005 196.85 551.548C197.954 551.091 199.137 550.856 200.331 550.856H335.419V559.95Z" fill="#7C9BFD"></path> <path d="M365.765 485.879H303.272C302.163 485.882 301.078 486.202 300.145 486.802C299.212 487.403 298.471 488.258 298.009 489.266L265.848 559.949H335.581L367.819 489.052C367.972 488.709 368.037 488.333 368.008 487.959C367.979 487.585 367.857 487.224 367.653 486.908C367.449 486.593 367.17 486.334 366.84 486.154C366.51 485.975 366.141 485.88 365.765 485.879V485.879Z" fill="#C1D0FF"></path> <path d="M157.097 352.552C171.863 351.508 180.608 364.997 183.157 376.808C184.996 385.33 184.085 386.995 184.085 386.995C184.085 386.995 182.465 389.311 170.881 390.007C159.298 390.703 157.91 390.453 157.91 390.453L157.213 377.022L153.74 389.989C153.74 389.989 151.883 392.537 144.706 389.061C137.528 385.585 134.278 374.01 134.278 374.01C134.278 374.01 132.658 366.371 138.22 361.275C143.782 356.18 157.097 352.552 157.097 352.552Z" fill="black"></path> <path d="M146.087 387.396C144.668 396.767 137.186 403.406 129.375 402.228C121.563 401.05 116.376 392.492 117.814 383.122C119.251 373.751 126.714 367.112 134.526 368.294C142.338 369.477 147.502 378.026 146.087 387.396Z" fill="#D54A41"></path> <path d="M140.435 387.147C139.122 395.821 132.985 402.09 126.735 401.144C120.486 400.198 116.468 392.394 117.767 383.72C119.066 375.046 125.222 368.776 131.489 369.722C137.756 370.668 141.747 378.468 140.435 387.147Z" fill="#F39892"></path> <path d="M130.862 385.21C130.143 389.976 127.545 393.536 125.059 393.161C122.573 392.787 121.144 388.615 121.868 383.849C122.591 379.084 125.184 375.523 127.67 375.898C130.157 376.272 131.581 380.44 130.862 385.21Z" fill="#F2E5DE"></path> <path d="M130.48 368.527C137.257 343.343 160.647 347.015 166.561 350.522C171.538 353.476 172.235 357.662 172.235 357.662C172.235 357.662 165.807 352.45 154.862 354.36C144.474 356.171 138.297 362.293 137.453 369.062C136.998 372.503 130.48 368.527 130.48 368.527Z" fill="#D54A41"></path> <path d="M26.5337 449.821H26.4846C26.4145 449.814 26.3465 449.794 26.2843 449.761C26.2222 449.728 26.1671 449.683 26.1223 449.628C26.0776 449.574 26.0439 449.512 26.0234 449.444C26.0028 449.377 25.9957 449.306 26.0025 449.236C26.6096 442.869 29.7923 436.323 34.9658 430.803C40.8178 424.557 49.1384 419.648 59.0391 416.587C81.0947 409.769 100.338 401.1 112.453 363.908C112.502 363.78 112.598 363.675 112.722 363.616C112.846 363.556 112.988 363.547 113.119 363.589C113.25 363.632 113.359 363.723 113.425 363.844C113.49 363.964 113.507 364.106 113.471 364.238C107.913 381.328 100.352 393.773 90.3482 402.282C81.5232 409.787 71.6002 413.839 59.3783 417.609C49.6562 420.617 41.4919 425.431 35.7693 431.535C30.7609 436.89 27.6764 443.204 27.0917 449.339C27.0781 449.475 27.0126 449.601 26.9088 449.691C26.805 449.781 26.6707 449.827 26.5337 449.821V449.821Z" fill="black"></path> <path d="M36.501 424.12C36.4188 424.12 36.3377 424.102 36.2641 424.065C36.1904 424.029 36.1263 423.976 36.0769 423.91C35.9902 423.798 35.9514 423.656 35.969 423.516C35.9865 423.375 36.0591 423.248 36.1706 423.161C43.1347 418.23 51.0096 414.732 59.3378 412.871C85.5045 407.11 103.083 391.382 110.136 367.394C110.154 367.324 110.185 367.259 110.229 367.201C110.273 367.144 110.328 367.096 110.39 367.061C110.453 367.025 110.522 367.003 110.594 366.995C110.665 366.986 110.737 366.993 110.807 367.013C110.876 367.034 110.94 367.068 110.995 367.113C111.051 367.159 111.097 367.216 111.13 367.28C111.163 367.343 111.183 367.413 111.189 367.485C111.194 367.557 111.185 367.629 111.162 367.697C106.797 382.516 98.5835 394.215 86.7499 402.461C79.1258 407.771 69.9839 411.626 59.5699 413.92C51.4024 415.745 43.6792 419.174 36.8491 424.008C36.7499 424.086 36.6266 424.125 36.501 424.12V424.12Z" fill="black"></path> <path d="M424.439 339.335H306.992L310.028 331H427.475L424.439 339.335Z" fill="#7A8FD3"></path> <path d="M419.884 351.842H302.438L305.473 343.507H422.92L419.884 351.842Z" fill="#7A8FD3"></path> <path d="M343.284 419.928H272.715C272.055 419.928 271.711 419.392 271.952 418.727L286.267 379.417C286.399 379.083 286.622 378.794 286.911 378.583C287.2 378.371 287.544 378.245 287.901 378.221H358.469C359.13 378.221 359.469 378.756 359.228 379.417L344.935 418.727C344.803 419.064 344.578 419.356 344.285 419.569C343.992 419.782 343.645 419.906 343.284 419.928V419.928Z" fill="#7A8FD3"></path> <path d="M342.436 418.09H274.908C274.773 418.098 274.638 418.07 274.518 418.008C274.397 417.946 274.296 417.853 274.223 417.739C274.151 417.625 274.11 417.493 274.106 417.358C274.101 417.223 274.133 417.089 274.198 416.97L287.232 381.176C287.357 380.866 287.566 380.597 287.836 380.399C288.105 380.202 288.425 380.085 288.759 380.06H356.283C356.418 380.051 356.552 380.079 356.673 380.14C356.793 380.202 356.895 380.294 356.968 380.408C357.04 380.522 357.081 380.653 357.085 380.788C357.09 380.924 357.057 381.057 356.992 381.176L343.963 416.97C343.839 417.281 343.63 417.551 343.36 417.749C343.09 417.947 342.77 418.065 342.436 418.09Z" fill="#C1D0FF"></path> <path d="M341.207 415.751H277.821C277.124 415.751 276.767 415.184 277.017 414.493L288.239 383.646C288.377 383.296 288.612 382.991 288.916 382.768C289.22 382.545 289.581 382.414 289.958 382.388H353.344C354.036 382.388 354.397 382.95 354.143 383.646L342.921 414.502C342.781 414.85 342.547 415.152 342.244 415.373C341.94 415.594 341.581 415.725 341.207 415.751V415.751Z" fill="#7A8FD3"></path> <path d="M236.462 375.705H230.896C230.372 375.724 229.852 375.614 229.379 375.386C228.907 375.159 228.498 374.819 228.186 374.398C227.879 373.918 227.692 373.372 227.642 372.804C227.593 372.237 227.681 371.666 227.901 371.14L229.927 365.581C230.709 363.434 233.025 361.752 235.199 361.752H240.757C241.28 361.733 241.801 361.841 242.273 362.068C242.745 362.295 243.155 362.634 243.466 363.055C243.775 363.535 243.963 364.082 244.012 364.651C244.062 365.219 243.973 365.791 243.752 366.317L241.73 371.872C240.948 374.018 238.632 375.705 236.462 375.705ZM235.204 363.894C233.936 363.894 232.414 365.023 231.945 366.317L229.918 371.872C229.821 372.076 229.773 372.3 229.779 372.525C229.784 372.751 229.843 372.972 229.95 373.171C230.066 373.306 230.213 373.413 230.378 373.481C230.543 373.549 230.722 373.577 230.9 373.563H236.462C237.752 373.563 239.243 372.452 239.721 371.14L241.743 365.581C241.841 365.378 241.889 365.155 241.885 364.931C241.88 364.706 241.822 364.485 241.716 364.287C241.6 364.15 241.452 364.043 241.286 363.975C241.12 363.907 240.94 363.879 240.761 363.894H235.204Z" fill="#4A54B8"></path> <path d="M227.864 399.322H222.306C221.783 399.341 221.263 399.232 220.791 399.005C220.319 398.778 219.909 398.44 219.597 398.019C219.289 397.539 219.102 396.991 219.053 396.423C219.003 395.855 219.091 395.284 219.311 394.757L221.333 389.202C222.114 387.051 224.431 385.369 226.605 385.369H232.167C232.691 385.351 233.211 385.46 233.683 385.688C234.155 385.916 234.565 386.255 234.876 386.677C235.184 387.156 235.371 387.703 235.42 388.27C235.47 388.837 235.381 389.408 235.162 389.934L233.135 395.489C232.354 397.64 230.037 399.322 227.864 399.322ZM226.605 387.511C225.337 387.511 223.815 388.644 223.346 389.934L221.324 395.489C221.227 395.693 221.178 395.916 221.183 396.142C221.188 396.367 221.245 396.588 221.351 396.788C221.467 396.924 221.615 397.031 221.781 397.099C221.947 397.168 222.127 397.195 222.306 397.18H227.864C229.154 397.18 230.645 396.069 231.122 394.757L233.149 389.202C233.245 388.998 233.293 388.775 233.288 388.55C233.284 388.324 233.227 388.103 233.122 387.904C233.005 387.767 232.858 387.661 232.692 387.592C232.526 387.524 232.346 387.496 232.167 387.511H226.605Z" fill="#4A54B8"></path> <path d="M219.266 422.939H213.705C213.181 422.958 212.661 422.85 212.189 422.623C211.717 422.396 211.307 422.057 210.995 421.637C210.687 421.157 210.501 420.61 210.451 420.043C210.401 419.476 210.49 418.905 210.709 418.379L212.736 412.82C213.517 410.673 215.829 408.991 218.008 408.991H223.565C224.089 408.971 224.609 409.08 225.081 409.307C225.554 409.534 225.963 409.873 226.275 410.294C226.582 410.773 226.769 411.32 226.819 411.887C226.868 412.455 226.78 413.026 226.56 413.551L224.538 419.111C223.757 421.257 221.44 422.939 219.266 422.939ZM218.008 411.133C216.718 411.133 215.227 412.239 214.749 413.551L212.723 419.111C212.626 419.315 212.578 419.538 212.583 419.763C212.588 419.989 212.645 420.21 212.749 420.41C212.867 420.545 213.015 420.65 213.181 420.717C213.347 420.785 213.526 420.812 213.705 420.798H219.266C220.552 420.798 222.047 419.691 222.525 418.379L224.547 412.82C224.645 412.616 224.693 412.393 224.688 412.167C224.684 411.942 224.626 411.72 224.52 411.521C224.403 411.385 224.255 411.28 224.089 411.212C223.923 411.145 223.744 411.117 223.565 411.133H218.008Z" fill="#7A8FD3"></path> <path d="M282.201 371.158H251.642C251.516 371.164 251.392 371.138 251.28 371.08C251.168 371.023 251.074 370.937 251.006 370.831C250.939 370.726 250.9 370.604 250.895 370.479C250.89 370.353 250.918 370.229 250.977 370.118C251.092 369.828 251.286 369.576 251.538 369.391C251.79 369.206 252.089 369.096 252.401 369.074H282.978C283.104 369.067 283.229 369.093 283.341 369.151C283.454 369.208 283.548 369.295 283.616 369.401C283.684 369.508 283.722 369.63 283.727 369.756C283.731 369.882 283.702 370.007 283.643 370.118C283.526 370.41 283.329 370.663 283.073 370.848C282.818 371.032 282.515 371.139 282.201 371.158V371.158Z" fill="#7A8FD3"></path> <path d="M280.682 375.325H250.105C249.98 375.332 249.855 375.306 249.743 375.249C249.631 375.191 249.537 375.105 249.469 374.999C249.402 374.893 249.364 374.771 249.36 374.646C249.355 374.52 249.385 374.396 249.445 374.285C249.558 373.995 249.752 373.743 250.003 373.558C250.254 373.373 250.553 373.263 250.864 373.241H281.441C281.567 373.234 281.692 373.261 281.805 373.318C281.917 373.376 282.012 373.462 282.08 373.569C282.147 373.675 282.185 373.797 282.19 373.923C282.195 374.049 282.166 374.174 282.106 374.285C281.991 374.575 281.796 374.827 281.544 375.011C281.292 375.194 280.993 375.303 280.682 375.325V375.325Z" fill="#7A8FD3"></path> <path d="M274.229 393.04H243.652C243.527 393.047 243.402 393.021 243.29 392.963C243.178 392.906 243.084 392.82 243.016 392.714C242.949 392.608 242.911 392.486 242.907 392.361C242.902 392.235 242.932 392.111 242.991 392C243.105 391.71 243.298 391.457 243.55 391.273C243.801 391.088 244.1 390.978 244.411 390.956H274.988C275.114 390.949 275.239 390.976 275.352 391.033C275.464 391.091 275.559 391.177 275.626 391.283C275.694 391.39 275.732 391.512 275.737 391.638C275.742 391.764 275.713 391.889 275.653 392C275.538 392.29 275.343 392.541 275.091 392.725C274.839 392.909 274.54 393.018 274.229 393.04Z" fill="#7A8FD3"></path> <path d="M272.717 397.207H242.14C242.015 397.215 241.89 397.188 241.778 397.131C241.666 397.074 241.572 396.988 241.504 396.882C241.437 396.776 241.399 396.654 241.395 396.528C241.391 396.403 241.42 396.278 241.48 396.168C241.593 395.877 241.787 395.625 242.038 395.44C242.289 395.255 242.588 395.145 242.899 395.124H273.476C273.602 395.117 273.728 395.143 273.84 395.201C273.952 395.258 274.047 395.345 274.115 395.451C274.183 395.557 274.221 395.68 274.225 395.806C274.23 395.932 274.201 396.057 274.141 396.168C274.026 396.458 273.831 396.709 273.579 396.893C273.327 397.077 273.029 397.186 272.717 397.207V397.207Z" fill="#7A8FD3"></path> <path d="M265.382 417.353H234.805C234.679 417.361 234.554 417.335 234.441 417.279C234.329 417.222 234.234 417.136 234.166 417.029C234.098 416.923 234.06 416.801 234.055 416.675C234.051 416.549 234.08 416.424 234.14 416.313C234.255 416.023 234.449 415.771 234.701 415.586C234.953 415.401 235.252 415.291 235.564 415.269H266.141C266.267 415.262 266.393 415.288 266.505 415.345C266.618 415.403 266.713 415.49 266.78 415.596C266.848 415.703 266.885 415.826 266.889 415.952C266.893 416.078 266.863 416.203 266.802 416.313C266.687 416.603 266.493 416.854 266.242 417.038C265.991 417.222 265.693 417.331 265.382 417.353V417.353Z" fill="#7A8FD3"></path> <path d="M263.859 421.521H233.282C233.156 421.529 233.03 421.503 232.918 421.446C232.805 421.39 232.71 421.304 232.642 421.197C232.574 421.091 232.536 420.969 232.532 420.843C232.527 420.717 232.556 420.592 232.617 420.481C232.731 420.191 232.926 419.939 233.178 419.754C233.43 419.569 233.729 419.459 234.041 419.437H264.617C264.743 419.43 264.869 419.456 264.982 419.513C265.094 419.571 265.189 419.658 265.257 419.764C265.324 419.871 265.362 419.994 265.365 420.12C265.369 420.246 265.339 420.371 265.278 420.481C265.164 420.771 264.97 421.022 264.718 421.206C264.467 421.39 264.169 421.499 263.859 421.521V421.521Z" fill="#7A8FD3"></path> <path d="M235.164 372.577C235.069 372.577 234.975 372.565 234.883 372.542C234.724 372.497 234.577 372.416 234.453 372.307C234.33 372.197 234.232 372.061 234.169 371.908L232.071 366.696C231.977 366.436 231.988 366.149 232.102 365.896C232.215 365.644 232.422 365.445 232.679 365.341C232.936 365.238 233.223 365.238 233.48 365.342C233.737 365.446 233.944 365.645 234.057 365.898L235.628 369.798L248.033 360.24C248.144 360.15 248.272 360.083 248.409 360.043C248.547 360.003 248.691 359.991 248.833 360.007C248.975 360.024 249.112 360.068 249.236 360.139C249.361 360.209 249.47 360.304 249.557 360.417C249.645 360.53 249.708 360.66 249.745 360.798C249.781 360.936 249.79 361.08 249.769 361.222C249.749 361.363 249.701 361.499 249.627 361.622C249.554 361.744 249.457 361.851 249.341 361.935L235.82 372.354C235.632 372.499 235.401 372.577 235.164 372.577V372.577Z" fill="#BEE1A9"></path> <path d="M226.57 396.195C226.475 396.196 226.38 396.184 226.289 396.159C226.129 396.115 225.983 396.035 225.859 395.925C225.736 395.815 225.64 395.679 225.579 395.525L223.481 390.318C223.387 390.058 223.398 389.771 223.512 389.518C223.625 389.265 223.832 389.067 224.089 388.963C224.347 388.86 224.634 388.86 224.891 388.964C225.147 389.068 225.354 389.267 225.467 389.52L227.038 393.419L239.443 383.862C239.669 383.697 239.95 383.627 240.227 383.666C240.503 383.705 240.753 383.851 240.924 384.072C241.095 384.293 241.172 384.572 241.14 384.85C241.107 385.127 240.968 385.381 240.751 385.557L227.226 395.976C227.038 396.12 226.807 396.197 226.57 396.195V396.195Z" fill="#BEE1A9"></path> <path d="M335.019 441.092H248.774C247.649 441.092 247.06 440.173 247.471 439.044C247.697 438.475 248.079 437.981 248.573 437.619C249.068 437.258 249.654 437.043 250.265 437H336.51C337.639 437 338.224 437.919 337.813 439.044C337.589 439.614 337.207 440.109 336.713 440.472C336.218 440.834 335.631 441.049 335.019 441.092V441.092Z" fill="#7A8FD3"></path> <path d="M331.703 450.19H245.458C244.329 450.19 243.744 449.266 244.155 448.137C244.38 447.568 244.763 447.074 245.257 446.713C245.751 446.351 246.338 446.136 246.949 446.094H333.194C334.319 446.094 334.908 447.013 334.498 448.137C334.273 448.708 333.891 449.204 333.397 449.567C332.902 449.93 332.315 450.146 331.703 450.19V450.19Z" fill="#7A8FD3"></path> <path fill-rule="evenodd" clip-rule="evenodd" d="M299.167 401.722C296.752 401.667 294.976 407.172 294.923 411.981L336.414 412.858L336.538 401.781C336.584 397.969 334.12 389.086 331.621 389.02C329.967 388.984 328.309 392.126 326.739 395.1C325.301 397.824 323.938 400.407 322.72 400.281C321.86 400.192 320.67 398.91 319.375 397.514C317.776 395.79 316.016 393.893 314.52 393.862C313.242 393.835 311.048 396.669 308.973 399.349C307.11 401.755 305.342 404.038 304.419 404.018C303.024 403.989 302.314 403.397 301.623 402.82C300.972 402.277 300.339 401.749 299.167 401.722ZM304.922 395.291C305.416 394.559 305.686 393.691 305.696 392.798C305.71 391.599 305.257 390.44 304.438 389.575C303.618 388.71 302.499 388.21 301.326 388.185C300.452 388.167 299.595 388.414 298.863 388.896C298.131 389.377 297.557 390.07 297.213 390.889C296.869 391.707 296.772 392.613 296.932 393.493C297.093 394.372 297.505 395.186 298.115 395.83C298.726 396.475 299.509 396.922 300.364 397.114C301.219 397.307 302.108 397.236 302.919 396.912C303.731 396.587 304.428 396.023 304.922 395.291Z" fill="#C1D0FF"></path> <path d="M390.263 538.759C390.263 537.313 407.671 489.163 395.905 458.165C387.656 436.457 386.352 410.421 386.352 410.421C386.352 410.421 370.283 433.427 381.143 468.588C387.839 490.229 390.553 496.226 391.129 502.594C391.704 508.961 388.526 540.793 388.526 540.793L390.263 538.759Z" fill="#BEE1A9"></path> <path d="M388.537 541.32C388.463 541.32 388.39 541.305 388.323 541.276C388.218 541.231 388.131 541.154 388.073 541.056C388.015 540.958 387.99 540.844 388.001 540.731C388.033 540.414 391.175 508.876 390.608 502.634C390.229 498.48 388.948 494.553 386.144 485.95C384.702 481.542 382.908 476.058 380.649 468.74C375.003 450.446 376.735 435.502 379.176 426.177C381.855 416.052 385.769 410.345 385.935 410.113C385.999 410.022 386.09 409.953 386.195 409.916C386.3 409.879 386.414 409.876 386.521 409.907C386.629 409.938 386.723 410.001 386.793 410.089C386.862 410.176 386.902 410.283 386.908 410.394C386.908 410.653 388.3 436.609 396.429 457.982C400.835 469.584 401.719 484.857 399.058 503.415C396.933 518.229 393.144 530.892 391.523 536.3C391.157 537.532 390.836 538.598 390.818 538.795C390.819 538.854 390.808 538.913 390.786 538.968C390.763 539.023 390.73 539.074 390.688 539.116L388.952 541.142C388.9 541.199 388.835 541.245 388.764 541.276C388.692 541.307 388.615 541.322 388.537 541.32ZM385.939 412.117C383.396 416.635 381.464 421.471 380.194 426.498C377.793 435.676 376.101 450.406 381.663 468.441C383.921 475.755 385.711 481.234 387.153 485.634C389.992 494.317 391.287 498.279 391.675 502.554C392.179 508.127 389.889 532.45 389.233 539.143L389.764 538.527C389.827 538.206 390.014 537.572 390.488 535.979C400.553 502.344 402.214 476.228 395.398 458.339C388.425 439.964 386.394 418.234 385.939 412.117Z" fill="#74B570"></path> <path d="M394.021 543.679C391.414 490.134 404.154 460.912 430.209 437.758C456.264 414.605 457.438 408.532 457.438 408.532C457.438 408.532 453.385 453.674 438.333 469.305C423.281 484.936 401.283 496.524 398.092 504.609C394.9 512.694 396.065 539.917 396.065 539.917L394.039 544.825L394.021 543.679Z" fill="#BEE1A9"></path> <path d="M390.834 548.308C390.548 547.443 396.338 498.244 417.47 495.353C438.601 492.461 443.525 497.378 458.001 495.063C464.236 494.069 470.349 492.424 476.24 490.154C476.24 490.154 470.758 504.103 451.921 509.832C438.606 513.884 421.233 507.231 411.1 508.966C400.967 510.702 395.758 532.406 395.758 532.406L394.021 543.695L390.834 548.308Z" fill="#BEE1A9"></path> <path d="M393.736 541.03C393.602 541.031 393.473 540.981 393.375 540.891C393.277 540.801 393.216 540.677 393.204 540.544C393.169 540.2 390.174 505.637 404.846 479.173C412.434 465.505 420.706 457.585 428.709 449.924C436.168 442.785 443.212 436.047 448.551 425.383C448.582 425.32 448.626 425.263 448.679 425.217C448.732 425.171 448.794 425.136 448.86 425.113C448.927 425.091 448.998 425.082 449.068 425.087C449.138 425.092 449.207 425.11 449.27 425.142C449.333 425.173 449.389 425.216 449.435 425.269C449.481 425.323 449.517 425.384 449.539 425.451C449.561 425.518 449.57 425.588 449.566 425.658C449.561 425.728 449.542 425.797 449.511 425.86C444.105 436.689 436.963 443.49 429.45 450.696C421.505 458.304 413.287 466.166 405.792 479.699C391.281 505.865 394.245 540.107 394.276 540.45C394.283 540.52 394.276 540.591 394.256 540.659C394.236 540.726 394.202 540.789 394.157 540.844C394.112 540.898 394.057 540.943 393.995 540.976C393.932 541.009 393.864 541.029 393.794 541.035L393.736 541.03Z" fill="#74B570"></path> <path d="M392.292 534.069C392.242 534.075 392.191 534.075 392.14 534.069C392.004 534.028 391.889 533.936 391.821 533.812C391.752 533.687 391.736 533.541 391.774 533.404C397.318 514.311 403.679 503.174 411.79 498.346C419.044 494.031 426.543 495.356 434.48 496.757C436.421 497.101 438.43 497.458 440.421 497.716C457.665 499.979 466.079 495.789 466.159 495.749C466.222 495.716 466.29 495.696 466.36 495.69C466.43 495.684 466.501 495.691 466.568 495.713C466.635 495.734 466.697 495.768 466.751 495.813C466.805 495.858 466.85 495.914 466.882 495.976C466.947 496.103 466.958 496.25 466.915 496.385C466.871 496.521 466.776 496.633 466.65 496.699C466.302 496.878 457.906 501.09 440.278 498.778C438.269 498.515 436.261 498.158 434.292 497.815C426.556 496.445 419.254 495.137 412.339 499.269C404.474 503.945 398.265 514.886 392.805 533.703C392.77 533.811 392.701 533.904 392.609 533.97C392.517 534.036 392.406 534.071 392.292 534.069V534.069Z" fill="#74B570"></path> <path d="M403.578 483.153C403.482 483.154 403.388 483.128 403.306 483.077C403.246 483.041 403.192 482.994 403.15 482.938C403.108 482.882 403.077 482.818 403.06 482.75C403.042 482.682 403.038 482.611 403.049 482.542C403.059 482.472 403.083 482.405 403.119 482.345C410.658 469.637 419.487 466.433 438.74 460.401C438.875 460.358 439.022 460.371 439.148 460.437C439.274 460.502 439.369 460.615 439.412 460.751C439.454 460.886 439.441 461.033 439.376 461.159C439.31 461.285 439.197 461.38 439.061 461.422C420.077 467.37 411.386 470.521 404.038 482.889C403.991 482.97 403.924 483.036 403.844 483.082C403.763 483.129 403.671 483.153 403.578 483.153V483.153Z" fill="#74B570"></path> <path d="M398.894 561.475H385.949C383.736 561.476 381.592 560.705 379.887 559.295C378.181 557.885 377.021 555.924 376.607 553.751L372.438 531.958H412.411L408.242 553.751C407.827 555.925 406.666 557.886 404.96 559.296C403.254 560.706 401.108 561.477 398.894 561.475V561.475Z" fill="#F39892"></path> <path d="M411.401 537.514H373.767C373.483 537.514 373.21 537.402 373.009 537.201C372.808 537 372.695 536.727 372.695 536.443C372.695 536.159 372.808 535.887 373.009 535.686C373.21 535.485 373.483 535.373 373.767 535.373H411.401C411.685 535.373 411.958 535.485 412.158 535.686C412.359 535.887 412.472 536.159 412.472 536.443C412.472 536.727 412.359 537 412.158 537.201C411.958 537.402 411.685 537.514 411.401 537.514V537.514Z" fill="#D54A41"></path> <path d="M429.761 459.856C429.678 459.856 429.597 459.838 429.524 459.801C429.45 459.765 429.386 459.712 429.337 459.646C429.293 459.591 429.261 459.528 429.242 459.46C429.223 459.392 429.218 459.321 429.227 459.252C429.235 459.182 429.258 459.115 429.293 459.054C429.328 458.993 429.375 458.939 429.43 458.896C436.824 453.656 445.235 450.023 454.12 448.232C454.189 448.219 454.26 448.219 454.329 448.233C454.398 448.247 454.464 448.274 454.522 448.314C454.581 448.353 454.631 448.404 454.67 448.462C454.708 448.521 454.735 448.587 454.749 448.656C454.762 448.725 454.762 448.796 454.748 448.865C454.734 448.934 454.707 449 454.667 449.058C454.628 449.117 454.577 449.167 454.519 449.206C454.46 449.245 454.394 449.272 454.325 449.285C445.603 451.04 437.346 454.603 430.086 459.744C429.993 459.817 429.879 459.856 429.761 459.856Z" fill="#74B570"></path> <path d="M448.637 185.583C435.889 211.449 419.909 282.123 415.549 285.996C411.189 289.869 386.008 304.877 381.648 312.138C377.288 319.399 379.23 316.977 381.167 317.462C383.105 317.948 492.544 318.429 492.544 318.429C492.544 318.429 479.954 243.396 478.502 242.911C477.05 242.425 448.637 185.583 448.637 185.583Z" fill="#FEAF59"></path> <path d="M430.496 318.079C450.613 318.219 471.81 318.332 483.486 318.389L467.498 222.815C458.974 206.291 448.623 185.583 448.623 185.583C447.014 188.844 445.356 192.818 443.677 197.277C442.02 269.061 452.362 289.183 444.591 301.97C438.53 311.954 432.998 316.418 430.496 318.079Z" fill="#F28C1C"></path> <path d="M658.63 322.828H214.38C213.471 322.828 212.599 322.437 211.957 321.74C211.314 321.044 210.953 320.099 210.953 319.113C210.953 318.128 211.314 317.183 211.957 316.487C212.599 315.79 213.471 315.398 214.38 315.398H658.63C659.539 315.398 660.41 315.79 661.053 316.487C661.696 317.183 662.057 318.128 662.057 319.113C662.057 320.099 661.696 321.044 661.053 321.74C660.41 322.437 659.539 322.828 658.63 322.828Z" fill="#22130C"></path> <path d="M515.754 154.366C533.929 171.14 574.394 187.043 574.394 187.043C574.394 187.043 580.517 243.825 576.345 275.973C572.173 308.121 574.482 314.643 574.482 314.643H491.05C491.05 314.643 479.85 299.111 459.353 250.819C446.303 220.066 448.634 185.588 448.634 185.588L499.438 162.764L515.754 154.366Z" fill="#FEAF59"></path> <path d="M491.044 314.643H574.476C574.476 314.643 572.145 308.121 576.339 275.973C579.794 249.499 576.234 206.331 574.874 191.909L567.282 188.661C548.237 194.147 537.256 222.549 534.046 250.299C531.886 268.869 501.107 287.151 480.973 297.219C487.572 309.826 491.044 314.643 491.044 314.643Z" fill="#F28C1C"></path> <path d="M470.585 96.0898C460.527 118.481 472.601 139.219 472.234 138.345C471.867 137.471 487.457 100.54 487.457 100.54L470.585 96.0898Z" fill="#22130C"></path> <path d="M508.714 112.644L521.453 159.266C521.628 159.914 521.646 160.594 521.506 161.25C521.366 161.906 521.072 162.519 520.648 163.039C517.653 166.724 513.393 174.304 504.8 176.735C503.036 177.166 501.223 177.369 499.408 177.338C498.559 177.343 497.735 177.051 497.079 176.513C496.423 175.975 495.975 175.225 495.813 174.392L487.285 130.174L508.714 112.644Z" fill="#F4B99E"></path> <path d="M506.26 116.539L501.599 118.45L487.285 130.174L494.978 169.36C508.01 161.229 509.912 155.743 506.26 116.539Z" fill="#E4A88C"></path> <path d="M508.241 133.261C505.42 148.592 493.941 158.961 482.61 156.43C471.279 153.899 465.869 143.967 467.181 124.059C468.226 108.452 475.927 91.4866 487.258 94.0265C498.589 96.5663 511.066 117.93 508.241 133.261Z" fill="#F4B99E"></path> <path d="M574.39 187.044C591.27 190.856 594.406 225.129 599.894 261.277C600.528 265.438 603.769 300.651 603.769 300.651C603.762 302.677 603.184 304.66 602.101 306.373C601.018 308.086 599.474 309.458 597.646 310.334C592.132 313.092 589.897 315.173 557.933 315.497C527.238 315.807 487.656 314.53 487.656 314.53C487.656 314.53 487.306 303.112 490.455 297.53C495.191 289.141 543.729 277.093 548.251 276.446C548.894 267.41 543.79 234.711 550.831 212.543C555.677 197.295 560.89 189.304 567.406 187.219C569.675 186.531 572.089 186.47 574.39 187.044V187.044Z" fill="#FEAF59"></path> <path d="M505 315.225C520.131 315.452 540.9 315.662 557.916 315.496C589.88 315.172 592.114 313.092 597.629 310.333C604.088 307.107 604.412 301.621 604.412 301.621C604.412 301.621 601.149 264.148 600.537 259.987C596.986 235.781 593.146 208.079 584.216 194.711C592.613 219.31 593.964 240.061 594.113 248.918C594.192 253.407 593.776 259.554 592.464 263.851C591.012 268.611 587.299 271.597 581.487 269.971C569.863 266.745 555.336 273.525 555.336 273.525C555.336 273.525 566.312 269.652 576.642 273.202C586.971 276.751 608.286 300.305 585.038 309.048C577.923 311.71 535.315 313.883 505 315.225Z" fill="#F28C1C"></path> <path d="M493.029 298.607C493.029 298.607 497.332 291.29 506.149 291.29C514.965 291.29 514.331 305.716 513.036 310.441C511.742 315.167 506.582 315.39 506.582 315.39L487.637 314.515L493.029 298.607Z" fill="#F28C1C"></path> <path d="M473.822 311.189H354.416C352.607 311.189 351.141 312.655 351.141 314.463V315.403C351.141 317.211 352.607 318.677 354.416 318.677H473.822C475.631 318.677 477.098 317.211 477.098 315.403V314.463C477.098 312.655 475.631 311.189 473.822 311.189Z" fill="#4A54B8"></path> <path d="M490.668 299.465C472.156 292.798 467.298 295.308 463.117 294.088C452.783 291.076 450.198 293.651 443.529 311.946C442.217 315.591 446.109 315.819 449.984 315.819C453.859 315.819 458.595 308.287 460.099 307.425C461.604 306.564 465.697 306.136 465.697 306.136C465.697 306.136 464.385 306.136 462.47 310.009C460.554 313.882 458.162 315.39 461.18 315.39C464.197 315.39 464.621 310.442 470.219 311.517C475.817 312.593 473.661 315.39 487.651 315.172C501.64 314.953 512.202 315.172 511.974 306.783C511.76 298.822 512.643 294.84 505.086 293.441C499.274 292.366 490.668 299.465 490.668 299.465Z" fill="#F4B99E"></path> <path d="M490.908 299.465C503.284 298.066 499.654 313.48 498.342 314.765C497.03 316.051 505.234 315.202 505.234 315.202C505.234 315.202 509.078 309.021 505.851 301.917C502.623 294.814 496.164 294.486 496.164 294.486L490.676 297.498L490.908 299.465Z" fill="#A86B48"></path> <path d="M503.825 298.128C503.663 300.034 500.418 301.324 496.574 301.004C492.73 300.685 489.739 298.871 489.914 296.97C490.088 295.068 493.316 293.774 497.164 294.093C501.013 294.412 503.982 296.218 503.825 298.128Z" fill="#22130C"></path> <path d="M502.843 297.174C502.699 298.884 499.782 300.033 496.362 299.745C492.942 299.456 490.24 297.843 490.401 296.138C490.563 294.433 493.463 293.279 496.878 293.568C500.294 293.856 502.983 295.469 502.843 297.174Z" fill="#3E6BAB"></path> <path d="M500.697 296.384C500.596 297.612 498.51 298.443 496.035 298.237C493.56 298.032 491.662 296.864 491.741 295.636C491.819 294.408 493.927 293.581 496.407 293.787C498.887 293.992 500.798 295.155 500.697 296.384Z" fill="#F0CEB4"></path> <path d="M350.057 295.033H229.767C226.682 295.016 223.701 293.916 221.344 291.926C218.987 289.936 217.404 287.181 216.871 284.143L201.184 197.588C199.706 189.426 205.89 181.898 214.081 181.898H334.37C337.455 181.915 340.436 183.014 342.793 185.005C345.149 186.995 346.731 189.75 347.262 192.788L362.953 279.343C364.431 287.505 358.248 295.033 350.057 295.033Z" fill="#4A54B8"></path> <path d="M355.659 279.667L339.662 194.895C338.495 188.718 332.958 184.232 326.499 184.232H204.259C202.932 185.765 201.968 187.577 201.438 189.533C200.908 191.49 200.826 193.54 201.198 195.533L217.436 283.916C218.006 287.039 219.655 289.862 222.095 291.894C224.535 293.925 227.611 295.036 230.787 295.033H342.522C350.871 295.033 357.181 287.662 355.659 279.667Z" fill="#C1D0FF"></path> <path d="M326.662 306.622H303.825C299.754 306.622 296.452 302.998 296.452 298.526V256.792C296.452 249.675 291.204 243.904 284.714 243.904H272.788C266.303 243.904 261.051 249.675 261.051 256.792V303.527C261.051 311.523 266.972 317.988 274.253 317.953L336.572 317.516C336.572 311.497 332.133 306.622 326.662 306.622Z" fill="#4A54B8"></path> <path d="M261.965 257.727V303.75C261.966 307.334 263.324 310.784 265.766 313.408C268.208 316.033 271.553 317.636 275.128 317.896L335.946 317.516C335.946 316.519 331.136 314.705 325.223 314.705H300.523C298.408 314.705 296.379 313.865 294.883 312.37C293.387 310.874 292.547 308.846 292.547 306.732V257.727C292.547 254.365 291.211 251.14 288.832 248.763C286.454 246.385 283.228 245.05 279.864 245.05H274.678C273.01 245.046 271.357 245.371 269.815 246.006C268.273 246.641 266.871 247.574 265.69 248.752C264.509 249.929 263.572 251.328 262.933 252.868C262.294 254.409 261.965 256.06 261.965 257.727V257.727Z" fill="#C1D0FF"></path> <path d="M389.273 301.341C398.457 296.235 409.701 297.94 413.763 303.041C417.826 308.143 418.53 311.548 409.338 311.548C400.145 311.548 381.765 312.23 378.699 311.889C375.633 311.548 389.273 301.341 389.273 301.341Z" fill="#F4B99E"></path> <path d="M402.895 298.281C412.765 295.899 419.513 301.638 427.747 307.125C434.893 311.89 436.332 316.523 428.425 312.572C416.854 306.788 410.058 306.106 410.058 306.106L402.895 298.281Z" fill="#F4B99E"></path> <path d="M393.891 301.288C388.905 301.288 384.554 299.697 381.034 299.977C377.513 300.256 366.37 311.705 368.128 312.584C368.261 312.652 368.398 312.71 368.539 312.759C369.833 313.22 371.246 313.224 372.543 312.77C373.839 312.316 374.941 311.431 375.663 310.263C377.242 307.732 379.805 304.79 382.792 305.843C386.088 306.927 389.541 307.464 393.012 307.43L393.891 301.288Z" fill="#F4B99E"></path> <path d="M390.971 313.58C385.868 311.534 394.033 294.521 396.762 294.521C399.49 294.521 409.697 302.691 409.697 302.691C409.697 302.691 407.296 304.042 399.145 301.327C397.103 300.645 395.401 312.216 393.022 313.567C390.643 314.918 390.971 313.58 390.971 313.58Z" fill="#F4B99E"></path> <path d="M467.173 133.038C466.7 151.774 473.085 154.944 477.55 157.488C482.015 160.032 501.262 155.827 504.087 151.193C511.311 139.338 505.228 128.286 506.846 128.461C508.464 128.636 509.942 133.244 514.154 139.233C514.547 139.792 517.285 143.49 517.429 142.262C519.384 125.484 528.126 120.273 526.045 103.303C524.51 90.7919 516.568 91.7887 516.568 91.7887C516.568 91.7887 511.442 81.3189 495.489 82.5079C484.801 83.3036 475.272 87.4652 464.256 90.3023C453.24 93.1394 477.288 118.101 491.579 108.977C505.871 99.8541 498.817 119.95 501.069 121.506C503.321 123.062 502.154 121.712 503.19 131.998C504.227 142.284 491.164 148.99 487.42 149.868C475.451 152.684 473.426 150.712 470.829 146.205C468.563 142.266 467.173 133.038 467.173 133.038Z" fill="#22130C"></path> <path d="M516.729 127.22C515.355 131.941 511.997 134.992 509.233 134.035C506.469 133.078 506.386 129.226 506.709 123.749C507.002 118.796 511.437 115.976 514.205 116.934C516.974 117.891 518.102 122.498 516.729 127.22Z" fill="#F4B99E"></path> <path d="M221.196 81H119.012C117.901 81 117 81.9003 117 83.0109V126.966C117 128.077 117.901 128.977 119.012 128.977H221.196C222.307 128.977 223.208 128.077 223.208 126.966V83.0109C223.208 81.9003 222.307 81 221.196 81Z" fill="#8FA5F0"></path> <path d="M218.668 93.6018H121.521C120.623 93.6018 119.895 94.3299 119.895 95.228V125.099C119.895 125.997 120.623 126.725 121.521 126.725H218.668C219.566 126.725 220.295 125.997 220.295 125.099V95.228C220.295 94.3299 219.566 93.6018 218.668 93.6018Z" fill="#C1D0FF"></path> <path d="M124.626 84.5276H122.268C121.771 84.5276 121.367 84.9308 121.367 85.4283V87.3695C121.367 87.867 121.771 88.2702 122.268 88.2702H124.626C125.123 88.2702 125.527 87.867 125.527 87.3695V85.4283C125.527 84.9308 125.123 84.5276 124.626 84.5276Z" fill="#C1D0FF"></path> <path d="M132.2 84.5276H129.842C129.345 84.5276 128.941 84.9308 128.941 85.4283V87.3695C128.941 87.867 129.345 88.2702 129.842 88.2702H132.2C132.698 88.2702 133.101 87.867 133.101 87.3695V85.4283C133.101 84.9308 132.698 84.5276 132.2 84.5276Z" fill="#C1D0FF"></path> <path d="M139.759 84.5276H137.401C136.903 84.5276 136.5 84.9308 136.5 85.4283V87.3695C136.5 87.867 136.903 88.2702 137.401 88.2702H139.759C140.256 88.2702 140.66 87.867 140.66 87.3695V85.4283C140.66 84.9308 140.256 84.5276 139.759 84.5276Z" fill="#C1D0FF"></path> <path d="M216.207 100.863H163.098C162.691 100.842 162.308 100.665 162.027 100.37C161.746 100.074 161.59 99.6819 161.59 99.2743C161.59 98.8668 161.746 98.4747 162.027 98.1791C162.308 97.8834 162.691 97.7067 163.098 97.6853H216.207C216.614 97.7067 216.997 97.8834 217.278 98.1791C217.558 98.4747 217.715 98.8668 217.715 99.2743C217.715 99.6819 217.558 100.074 217.278 100.37C216.997 100.665 216.614 100.842 216.207 100.863V100.863Z" fill="#8FA5F0"></path> <path d="M176.266 125.363H123.162C122.953 125.363 122.747 125.322 122.554 125.242C122.362 125.162 122.187 125.045 122.039 124.898C121.892 124.751 121.775 124.576 121.695 124.383C121.615 124.191 121.574 123.984 121.574 123.776C121.574 123.567 121.615 123.361 121.695 123.169C121.775 122.976 121.892 122.801 122.039 122.654C122.187 122.506 122.362 122.389 122.554 122.31C122.747 122.23 122.953 122.189 123.162 122.189H176.266C176.474 122.189 176.681 122.23 176.873 122.31C177.066 122.389 177.241 122.506 177.388 122.654C177.536 122.801 177.652 122.976 177.732 123.169C177.812 123.361 177.853 123.567 177.853 123.776C177.853 123.984 177.812 124.191 177.732 124.383C177.652 124.576 177.536 124.751 177.388 124.898C177.241 125.045 177.066 125.162 176.873 125.242C176.681 125.322 176.474 125.363 176.266 125.363Z" fill="#8FA5F0"></path> <path d="M186.051 122.189H180.554C180.254 122.189 180.012 122.432 180.012 122.731V124.825C180.012 125.124 180.254 125.367 180.554 125.367H186.051C186.351 125.367 186.593 125.124 186.593 124.825V122.731C186.593 122.432 186.351 122.189 186.051 122.189Z" fill="#8FA5F0"></path> <path d="M194.34 122.189H188.843C188.544 122.189 188.301 122.432 188.301 122.731V124.825C188.301 125.124 188.544 125.367 188.843 125.367H194.34C194.64 125.367 194.882 125.124 194.882 124.825V122.731C194.882 122.432 194.64 122.189 194.34 122.189Z" fill="#8FA5F0"></path> <path d="M216.702 107.783H128.801C128.526 107.766 128.269 107.644 128.081 107.444C127.894 107.244 127.789 106.98 127.789 106.705C127.789 106.431 127.894 106.167 128.081 105.967C128.269 105.766 128.526 105.645 128.801 105.628H216.702C216.849 105.619 216.997 105.639 217.136 105.689C217.275 105.739 217.402 105.817 217.51 105.918C217.617 106.019 217.703 106.141 217.762 106.276C217.821 106.412 217.851 106.558 217.851 106.705C217.851 106.853 217.821 106.999 217.762 107.135C217.703 107.27 217.617 107.392 217.51 107.493C217.402 107.594 217.275 107.672 217.136 107.722C216.997 107.772 216.849 107.792 216.702 107.783Z" fill="#8FA5F0"></path> <path d="M216.702 112.431H128.801C128.526 112.413 128.269 112.292 128.081 112.092C127.894 111.892 127.789 111.628 127.789 111.353C127.789 111.079 127.894 110.815 128.081 110.614C128.269 110.414 128.526 110.293 128.801 110.276H216.702C216.849 110.266 216.997 110.287 217.136 110.337C217.275 110.387 217.402 110.465 217.51 110.566C217.617 110.667 217.703 110.789 217.762 110.924C217.821 111.06 217.851 111.206 217.851 111.353C217.851 111.501 217.821 111.647 217.762 111.782C217.703 111.918 217.617 112.04 217.51 112.141C217.402 112.242 217.275 112.319 217.136 112.369C216.997 112.419 216.849 112.44 216.702 112.431V112.431Z" fill="#8FA5F0"></path> <path d="M143 114.688H245.18C245.714 114.688 246.225 114.9 246.603 115.277C246.98 115.654 247.192 116.165 247.192 116.699V160.654C247.192 161.189 246.98 161.701 246.601 162.079C246.223 162.457 245.711 162.669 245.176 162.669H143C142.466 162.669 141.953 162.457 141.575 162.079C141.197 161.701 140.984 161.189 140.984 160.654V116.699C140.986 116.165 141.198 115.653 141.576 115.276C141.954 114.899 142.466 114.688 143 114.688Z" fill="#7A8FD3"></path> <path d="M242.664 127.29H145.517C144.619 127.29 143.891 128.018 143.891 128.916V158.786C143.891 159.685 144.619 160.413 145.517 160.413H242.664C243.562 160.413 244.291 159.685 244.291 158.786V128.916C244.291 128.018 243.562 127.29 242.664 127.29Z" fill="#C1D0FF"></path> <path d="M148.63 118.215H146.272C145.774 118.215 145.371 118.618 145.371 119.115V121.057C145.371 121.554 145.774 121.957 146.272 121.957H148.63C149.127 121.957 149.531 121.554 149.531 121.057V119.115C149.531 118.618 149.127 118.215 148.63 118.215Z" fill="#C1D0FF"></path> <path d="M156.192 118.215H153.835C153.337 118.215 152.934 118.618 152.934 119.115V121.057C152.934 121.554 153.337 121.957 153.835 121.957H156.192C156.69 121.957 157.093 121.554 157.093 121.057V119.115C157.093 118.618 156.69 118.215 156.192 118.215Z" fill="#C1D0FF"></path> <path d="M163.759 118.215H161.397C160.9 118.215 160.496 118.618 160.496 119.115V121.057C160.496 121.554 160.9 121.957 161.397 121.957H163.759C164.257 121.957 164.66 121.554 164.66 121.057V119.115C164.66 118.618 164.257 118.215 163.759 118.215Z" fill="#C1D0FF"></path> <path d="M240.206 134.551H187.102C186.695 134.53 186.312 134.353 186.031 134.057C185.75 133.761 185.594 133.369 185.594 132.962C185.594 132.554 185.75 132.162 186.031 131.867C186.312 131.571 186.695 131.394 187.102 131.373H240.206C240.422 131.361 240.638 131.394 240.84 131.469C241.043 131.544 241.228 131.659 241.385 131.808C241.542 131.956 241.667 132.135 241.752 132.334C241.837 132.532 241.881 132.746 241.881 132.962C241.881 133.178 241.837 133.392 241.752 133.59C241.667 133.788 241.542 133.967 241.385 134.116C241.228 134.265 241.043 134.38 240.84 134.455C240.638 134.529 240.422 134.562 240.206 134.551Z" fill="#7A8FD3"></path> <path d="M200.264 159.053H147.165C146.757 159.032 146.374 158.855 146.093 158.559C145.813 158.264 145.656 157.872 145.656 157.464C145.656 157.056 145.813 156.664 146.093 156.369C146.374 156.073 146.757 155.896 147.165 155.875H200.273C200.68 155.896 201.064 156.073 201.344 156.369C201.625 156.664 201.781 157.056 201.781 157.464C201.781 157.872 201.625 158.264 201.344 158.559C201.064 158.855 200.68 159.032 200.273 159.053H200.264Z" fill="#7A8FD3"></path> <path d="M210.043 155.875H204.546C204.247 155.875 204.004 156.118 204.004 156.417V158.511C204.004 158.81 204.247 159.053 204.546 159.053H210.043C210.343 159.053 210.586 158.81 210.586 158.511V156.417C210.586 156.118 210.343 155.875 210.043 155.875Z" fill="#7A8FD3"></path> <path d="M218.328 155.875H212.831C212.532 155.875 212.289 156.118 212.289 156.417V158.511C212.289 158.81 212.532 159.053 212.831 159.053H218.328C218.628 159.053 218.871 158.81 218.871 158.511V156.417C218.871 156.118 218.628 155.875 218.328 155.875Z" fill="#7A8FD3"></path> <path d="M240.719 141.471H152.778C152.63 141.48 152.483 141.459 152.344 141.409C152.205 141.359 152.078 141.281 151.97 141.18C151.862 141.079 151.777 140.957 151.718 140.822C151.659 140.687 151.629 140.541 151.629 140.393C151.629 140.245 151.659 140.099 151.718 139.964C151.777 139.829 151.862 139.707 151.97 139.606C152.078 139.505 152.205 139.427 152.344 139.377C152.483 139.327 152.63 139.306 152.778 139.315H240.719C240.866 139.306 241.014 139.327 241.153 139.377C241.291 139.427 241.419 139.505 241.526 139.606C241.634 139.707 241.72 139.829 241.779 139.964C241.837 140.099 241.867 140.245 241.867 140.393C241.867 140.541 241.837 140.687 241.779 140.822C241.72 140.957 241.634 141.079 241.526 141.18C241.419 141.281 241.291 141.359 241.153 141.409C241.014 141.459 240.866 141.48 240.719 141.471V141.471Z" fill="#7A8FD3"></path> <path d="M240.719 146.122H152.778C152.63 146.132 152.483 146.111 152.344 146.061C152.205 146.011 152.078 145.933 151.97 145.832C151.862 145.731 151.777 145.609 151.718 145.474C151.659 145.338 151.629 145.192 151.629 145.045C151.629 144.897 151.659 144.751 151.718 144.616C151.777 144.48 151.862 144.358 151.97 144.257C152.078 144.156 152.205 144.078 152.344 144.028C152.483 143.979 152.63 143.958 152.778 143.967H240.719C240.866 143.958 241.014 143.979 241.153 144.028C241.291 144.078 241.419 144.156 241.526 144.257C241.634 144.358 241.72 144.48 241.779 144.616C241.837 144.751 241.867 144.897 241.867 145.045C241.867 145.192 241.837 145.338 241.779 145.474C241.72 145.609 241.634 145.731 241.526 145.832C241.419 145.933 241.291 146.011 241.153 146.061C241.014 146.111 240.866 146.132 240.719 146.122V146.122Z" fill="#7A8FD3"></path> <path d="M290.577 145.783C290.577 148.509 289.769 151.174 288.254 153.441C286.739 155.708 284.585 157.474 282.065 158.518C279.546 159.561 276.773 159.834 274.099 159.302C271.424 158.77 268.967 157.457 267.039 155.53C265.11 153.602 263.797 151.146 263.265 148.472C262.733 145.799 263.006 143.027 264.05 140.509C265.093 137.99 266.861 135.837 269.128 134.323C271.396 132.808 274.062 132 276.789 132C280.446 132 283.953 133.452 286.539 136.037C289.125 138.622 290.577 142.128 290.577 145.783V145.783Z" fill="#BEE1A9"></path> <path d="M275.424 150.872H275.385C275.243 150.866 275.103 150.832 274.975 150.771C274.846 150.71 274.731 150.624 274.637 150.518L270.893 146.265C270.796 146.162 270.721 146.041 270.672 145.909C270.622 145.777 270.6 145.636 270.607 145.496C270.613 145.355 270.648 145.216 270.709 145.089C270.77 144.962 270.856 144.849 270.961 144.755C271.067 144.662 271.191 144.591 271.325 144.547C271.459 144.503 271.6 144.486 271.741 144.497C271.881 144.509 272.018 144.548 272.143 144.614C272.268 144.68 272.378 144.77 272.468 144.879L275.481 148.302L282.692 141.25C282.791 141.154 282.907 141.078 283.035 141.026C283.163 140.975 283.3 140.949 283.438 140.951C283.575 140.952 283.712 140.981 283.838 141.035C283.965 141.089 284.08 141.167 284.177 141.266C284.273 141.364 284.349 141.481 284.401 141.609C284.452 141.736 284.478 141.873 284.477 142.011C284.475 142.149 284.447 142.285 284.393 142.412C284.339 142.539 284.26 142.653 284.161 142.75L276.159 150.575C275.962 150.767 275.698 150.873 275.424 150.872V150.872Z" fill="white"></path> <path d="M369.745 67H282.085C279.829 67 278 68.828 278 71.083V102.392C278 104.647 279.829 106.475 282.085 106.475H369.745C372.001 106.475 373.83 104.647 373.83 102.392V71.083C373.83 68.828 372.001 67 369.745 67Z" fill="#7A8FD3"></path> <path d="M289.574 100.517V122.296L314.681 97.2031C314.681 97.2031 290.099 100.517 289.574 100.517Z" fill="#7A8FD3"></path> <path d="M365.406 70.9133H286.417C284.504 70.9133 282.953 72.4634 282.953 74.3756V99.0964C282.953 101.009 284.504 102.559 286.417 102.559H365.406C367.318 102.559 368.869 101.009 368.869 99.0964V74.3756C368.869 72.4634 367.318 70.9133 365.406 70.9133Z" fill="#C1D0FF"></path> <path d="M329.733 78.7333H290.925C290.694 78.745 290.463 78.7096 290.246 78.6293C290.029 78.549 289.831 78.4255 289.663 78.2662C289.496 78.107 289.362 77.9153 289.271 77.7029C289.18 77.4905 289.133 77.2617 289.133 77.0306C289.133 76.7994 289.18 76.5707 289.271 76.3582C289.362 76.1458 289.496 75.9542 289.663 75.7949C289.831 75.6356 290.029 75.5121 290.246 75.4318C290.463 75.3515 290.694 75.3162 290.925 75.3279H329.733C330.169 75.35 330.581 75.539 330.882 75.8559C331.184 76.1728 331.352 76.5933 331.352 77.0306C331.352 77.4678 331.184 77.8883 330.882 78.2052C330.581 78.5221 330.169 78.7111 329.733 78.7333V78.7333Z" fill="#7A8FD3"></path> <path d="M362.158 83.3328H290.175C289.653 83.3328 289.23 83.7555 289.23 84.277V84.2989C289.23 84.8204 289.653 85.2431 290.175 85.2431H362.158C362.68 85.2431 363.103 84.8204 363.103 84.2989V84.277C363.103 83.7555 362.68 83.3328 362.158 83.3328Z" fill="#7A8FD3"></path> <path d="M362.158 87.0393H290.175C289.653 87.0393 289.23 87.4621 289.23 87.9836V88.0054C289.23 88.5269 289.653 88.9497 290.175 88.9497H362.158C362.68 88.9497 363.103 88.5269 363.103 88.0054V87.9836C363.103 87.4621 362.68 87.0393 362.158 87.0393Z" fill="#7A8FD3"></path> <path d="M347.282 97.4561H344.924C344.427 97.4561 344.023 97.8593 344.023 98.3567V100.298C344.023 100.795 344.427 101.199 344.924 101.199H347.282C347.78 101.199 348.183 100.795 348.183 100.298V98.3567C348.183 97.8593 347.78 97.4561 347.282 97.4561Z" fill="#7A8FD3"></path> <path d="M354.845 97.4561H352.487C351.989 97.4561 351.586 97.8593 351.586 98.3567V100.298C351.586 100.795 351.989 101.199 352.487 101.199H354.845C355.342 101.199 355.746 100.795 355.746 100.298V98.3567C355.746 97.8593 355.342 97.4561 354.845 97.4561Z" fill="#7A8FD3"></path> <path d="M362.407 97.4561H360.049C359.552 97.4561 359.148 97.8593 359.148 98.3567V100.298C359.148 100.795 359.552 101.199 360.049 101.199H362.407C362.905 101.199 363.308 100.795 363.308 100.298V98.3567C363.308 97.8593 362.905 97.4561 362.407 97.4561Z" fill="#7A8FD3"></path> </svg> 